<svg xmlns="http://www.w3.org/2000/svg" viewBox="0 0 512 512" fill="none">
  <!-- Pedalel logo — placeholder SVG teal delivery cyclist
       Remplace ce fichier par le PNG/SVG officiel quand dispo -->

  <!-- Sac dorsal cube -->
  <path d="M182 108 L262 108 L262 200 L182 200 Z" fill="#2AA5AC" stroke="#196D71" stroke-width="4"/>
  <path d="M182 108 L262 108 L242 88 L162 88 Z" fill="#3EBABE"/>
  <path d="M182 108 L182 200 L162 180 L162 88 Z" fill="#196D71"/>

  <!-- Corps + tête livreur -->
  <circle cx="290" cy="140" r="26" fill="#2AA5AC" stroke="#196D71" stroke-width="4"/>
  <path d="M295 168 Q305 200 300 240 Q296 268 275 285 L245 300"
    stroke="#2AA5AC" stroke-width="18" stroke-linecap="round" fill="none"/>

  <!-- Bras -->
  <path d="M280 200 Q330 240 340 265"
    stroke="#2AA5AC" stroke-width="14" stroke-linecap="round" fill="none"/>

  <!-- Vélo — cadre triangle -->
  <path d="M190 340 L275 305 L305 355 L200 355 Z"
    stroke="#2AA5AC" stroke-width="10" stroke-linejoin="round" fill="none"/>

  <!-- Guidon -->
  <path d="M305 355 L340 320" stroke="#2AA5AC" stroke-width="10" stroke-linecap="round"/>

  <!-- Roue avant -->
  <circle cx="360" cy="380" r="60" stroke="#2AA5AC" stroke-width="8" fill="none"/>
  <circle cx="360" cy="380" r="8" fill="#2AA5AC"/>
  <!-- Rayons roue avant -->
  <g stroke="#2AA5AC" stroke-width="3" stroke-linecap="round">
    <line x1="360" y1="325" x2="360" y2="435"/>
    <line x1="305" y1="380" x2="415" y2="380"/>
    <line x1="322" y1="342" x2="398" y2="418"/>
    <line x1="322" y1="418" x2="398" y2="342"/>
  </g>

  <!-- Roue arrière -->
  <circle cx="155" cy="380" r="60" stroke="#2AA5AC" stroke-width="8" fill="none"/>
  <circle cx="155" cy="380" r="8" fill="#2AA5AC"/>
  <g stroke="#2AA5AC" stroke-width="3" stroke-linecap="round">
    <line x1="155" y1="325" x2="155" y2="435"/>
    <line x1="100" y1="380" x2="210" y2="380"/>
    <line x1="117" y1="342" x2="193" y2="418"/>
    <line x1="117" y1="418" x2="193" y2="342"/>
  </g>

  <!-- Pedale -->
  <circle cx="248" cy="380" r="14" fill="#2AA5AC"/>
</svg>
